# xmcd
#
# Track frame offsets: 
#        182
#        18485
#        49542
#
# Disc length: 888 seconds
#
# Revision: 0
# Processed by: cddbd v1.5.2PL0 Copyright (c) Steve Scherf et al.
# Submitted via: ExactAudioCopyFreeDBPlugin 1.0
#
DISCID=1a037603
DTITLE=Dannii - This Is The Way
DYEAR=1992
DGENRE=Pop*
TTITLE0=This Is The Way (7" Version)
TTITLE1=This Is The Way (12" Version)
TTITLE2=This Is The Way (The Cool 7" Version)
EXTD=
EXTT0=
EXTT1=
EXTT2=
PLAYORDER=
